<svg width="230" height="26" viewBox="0 0 230 26" fill="none" xmlns="http://www.w3.org/2000/svg">
<path d="M206.182 17.9831C204.525 17.9524 202.997 17.8779 201.435 17.7984C192.828 17.339 184.432 16.6052 175.97 16.133C171.371 15.8727 166.814 15.7391 162.155 15.8455C155.787 15.9866 149.34 16.4259 142.868 16.9188C130.726 17.8582 118.519 19.0083 106.403 19.7881C97.954 20.3353 89.4819 20.891 81.0324 21.4852C73.3533 22.0753 65.4744 22.4613 58.297 23.6451C56.0725 24.0299 53.8626 24.4749 51.6003 24.9515C51.3817 24.9973 51.162 25.0432 50.9393 25.0894C50.5836 25.1632 50.2216 25.2359 49.9265 25.2986C49.8554 25.3137 49.7903 25.328 49.7523 25.3365C49.738 25.3344 49.6342 25.3807 49.9608 25.2574C50.086 25.1917 50.1536 25.2263 50.7535 24.8041C50.8414 24.7374 50.9399 24.6569 51.05 24.5533C51.105 24.5015 51.1628 24.4439 51.2233 24.3787C51.2928 24.3042 51.3927 24.1881 51.4829 24.0657C51.6666 23.8167 51.8673 23.4827 52.015 23.0417C52.1787 22.584 52.2712 21.8317 52.1414 21.1985C51.8411 19.8564 51.268 19.4128 50.9091 19.0714C50.6295 18.8358 50.4112 18.711 50.2394 18.6199C49.7089 18.3603 49.6137 18.3735 49.5027 18.3365C49.4067 18.3126 49.3648 18.3055 49.3329 18.2996C49.2289 18.2828 49.2865 18.2949 49.3313 18.3005C53.9351 18.5216 60.1602 18.1884 65.6627 18.0182C77.6146 17.565 89.6073 17.0971 101.624 16.8296C111.349 16.6099 121.09 16.4988 130.836 16.5718C139.711 16.6396 148.58 16.8663 157.433 17.2151C170.048 17.7163 182.667 18.4522 195.246 19.4482C195.509 19.4692 195.769 19.4901 196.027 19.511C201.281 19.9398 206.538 20.399 211.771 21.0548C214.06 21.3446 216.352 21.6884 218.611 22.1389C220.138 22.4503 221.65 22.7073 223.179 23.1873C223.32 23.2407 223.439 23.2696 223.626 23.3905C223.651 23.4105 223.683 23.4288 223.729 23.4938C223.749 23.5245 223.784 23.5862 223.78 23.6762C223.776 23.7697 223.723 23.8412 223.69 23.8717C223.556 23.9786 223.522 23.9577 223.47 23.9754C223.376 23.9935 223.302 23.9973 223.226 24.0011C223.224 24.0011 223.222 24.0012 223.221 24.0013C222.613 24.0135 222.076 23.9205 221.673 23.8203C221.272 23.7162 221.05 23.5964 221.057 23.4858C221.063 23.3749 221.3 23.2803 221.707 23.2172C222.106 23.1514 222.687 23.1359 223.168 23.1016C223.169 23.1016 223.169 23.1015 223.17 23.1015C223.221 23.0972 223.276 23.0882 223.275 23.0861C223.258 23.1058 223.298 23.021 223.042 23.2259C222.98 23.2834 222.863 23.4561 222.865 23.6559C222.865 23.8508 222.94 23.9631 222.974 24.014C223.053 24.1215 223.081 24.1272 223.097 24.1426C223.159 24.1796 222.989 24.1042 222.889 24.0787C221.512 23.7118 219.931 23.5011 218.417 23.2632C216.128 22.9105 213.831 22.6706 211.513 22.4812C206.927 22.1108 202.329 21.8957 197.729 21.7095C197.279 21.3974 196.764 21.1245 195.946 20.898C195.478 20.7631 194.889 20.6444 194.198 20.5481C193.253 20.4169 191.853 20.3086 190.835 20.3403C189.905 20.3679 189.219 20.4689 188.548 20.5648C187.85 20.6654 187.2 20.762 186.353 20.7672C184.933 20.777 183.557 20.9083 182.136 21.0504C181.616 21.102 181.079 21.1547 180.539 21.2038C176.128 21.1139 171.741 21.053 167.33 21.019C165.639 20.9225 164.074 20.8433 162.746 20.8304C161.561 20.819 160.466 20.8912 159.381 20.9887C158.695 20.9887 158.02 20.9896 157.337 20.991C152.937 21.0003 148.541 21.0379 144.148 21.1079C140.721 20.9739 137.122 20.8569 132.451 20.8523C131.928 20.8519 131.407 20.8491 130.889 20.8447C129.41 20.8321 127.951 20.8063 126.536 20.7848C123.712 20.7419 121.053 20.716 118.727 20.8427C117.171 20.9274 115.532 20.9101 113.898 20.8966C111.706 20.8784 109.513 20.8676 107.54 21.1151C106.293 21.271 105.163 21.4482 104.102 21.6142C102.429 21.8779 100.964 22.1116 99.6249 22.1806C97.1206 22.3098 94.9607 22.5523 93.0507 22.769C90.7587 23.0295 88.8384 23.2523 87.1351 23.1995C86.8768 23.1915 86.5819 23.1785 86.2518 23.1635C84.4921 23.0856 81.7023 22.9618 77.6951 23.3242C76.287 23.4522 74.9361 23.6615 73.6362 23.8656C71.733 24.1633 69.8867 24.4527 67.8919 24.4757C67.5951 24.479 67.2906 24.4426 66.9966 24.4102C66.6292 24.3686 66.3161 24.3318 66.1362 24.3876C66.0922 24.4012 66.046 24.4151 65.998 24.4291C65.4395 24.5852 64.6602 24.7643 63.8018 24.9575C63.1142 25.1123 62.3931 25.2752 61.715 25.4416C57.3688 25.6623 53.7108 26.088 48.474 25.8999C48.3371 25.8845 48.2186 25.8757 47.925 25.824C47.8442 25.8089 47.7555 25.7922 47.6085 25.7553C47.4463 25.7044 47.2975 25.7049 46.6921 25.4076C46.4967 25.3041 46.2539 25.1645 45.9476 24.9063C45.5537 24.5324 44.935 24.0505 44.6118 22.604C44.4722 21.9217 44.5721 21.1114 44.7488 20.6177C44.9082 20.1417 45.1254 19.7801 45.3254 19.5091C45.4234 19.376 45.5327 19.2491 45.6087 19.1676C45.675 19.0962 45.7386 19.0328 45.7993 18.9756C45.9207 18.8614 46.0303 18.7717 46.1291 18.6968C46.8068 18.2188 46.9213 18.2376 47.0989 18.1495C47.6182 17.9515 47.6873 17.9548 47.8495 17.9065C47.989 17.8697 48.095 17.8437 48.199 17.8183C48.6046 17.7205 48.9315 17.6461 49.2727 17.5653C49.4954 17.5128 49.7225 17.4587 49.9511 17.4044C52.1979 16.8667 54.5135 16.3356 56.8393 15.871C56.8987 15.8591 56.9585 15.8472 57.0187 15.8352C58.2908 15.8045 59.6288 15.774 60.9882 15.7303C62.7617 15.6716 65.0137 15.4712 67.878 15.2615C69.998 15.1058 72.4416 14.9453 75.302 14.8273C77.0332 14.7559 78.7752 14.6574 80.466 14.5424C83.9056 14.3091 87.1257 14.0056 89.4447 13.7409C90.1722 13.6578 90.9139 13.5721 91.694 13.4812C94.675 13.1357 98.3935 12.7037 105.461 12.0261C112.15 11.3857 117.847 10.9488 122.127 10.6269C124.307 10.4629 126.134 10.3282 127.517 10.2124C129.9 10.013 132.817 9.78588 135.761 9.56426C138.053 9.39157 140.354 9.22271 142.408 9.07153C144.477 8.9192 146.305 8.78444 147.618 8.67609C148.549 8.59919 149.526 8.51482 150.595 8.42599C153.533 8.18501 157.082 7.88968 162.038 7.70816C167.239 7.52777 170.495 7.63399 173.828 7.82247C174.677 7.87161 175.455 7.97267 176.223 8.09539C176.678 8.16872 177.133 8.24998 177.588 8.33257C179.32 8.64599 181.117 8.97875 183.566 9.00122C184.138 9.0065 184.748 8.99103 185.387 8.97528C186.56 8.94631 187.829 8.9166 189.121 9.01403C189.569 9.04787 189.969 9.11358 190.354 9.1778C190.783 9.24868 191.197 9.31792 191.675 9.34332C193.45 9.4378 195.184 9.51055 196.714 9.57473C198.691 9.65784 200.356 9.72763 201.376 9.81663C201.521 9.82919 201.663 9.84076 201.804 9.85139C203.488 9.974 205.443 10.0164 207.056 9.96193C207.174 9.95606 207.285 9.94714 207.314 9.93978C207.325 9.93695 207.315 9.93249 207.219 9.94469C207.143 9.949 206.84 10.025 206.756 10.0588C206.348 10.243 207.564 9.57983 208.489 9.46788C209.554 9.32147 209.892 9.37072 210.373 9.355C210.821 9.35223 211.241 9.35392 211.659 9.35817C211.816 9.35981 211.972 9.36101 212.134 9.36177C214.272 9.36943 216.766 9.40024 219.043 9.14877C219.906 9.04821 220.789 8.93783 221.658 8.8118C222.089 8.74901 222.524 8.68116 222.921 8.60859C223.118 8.57243 223.307 8.53447 223.449 8.49983C223.516 8.48354 223.575 8.46614 223.566 8.4645C223.558 8.46541 223.541 8.46601 223.437 8.49936C223.388 8.51629 223.315 8.53922 223.16 8.60931C223.078 8.64763 222.993 8.68645 222.825 8.7863C222.684 8.87521 222.425 9.02478 222.062 9.3981C221.914 9.58902 221.337 10.0395 221.073 11.3885C220.835 12.7971 221.483 13.9008 221.763 14.2596C222.084 14.6822 222.278 14.8224 222.412 14.9366C222.549 15.0456 222.633 15.0998 222.699 15.1428C222.939 15.2919 222.938 15.2793 222.942 15.2873C222.925 15.2859 222.793 15.2407 222.657 15.1999C222.191 15.0584 221.635 14.921 221.057 14.7963C219.393 14.4411 217.83 14.0796 216.019 13.6592C215.607 13.5641 215.183 13.467 214.739 13.3684C213.256 13.0394 211.564 12.6971 209.404 12.3672C208.189 12.1817 207.133 12.1645 206.155 12.1527C205.244 12.141 204.43 12.1374 203.57 12.0137C202.83 11.9064 202.365 11.7025 201.925 11.5092C201.431 11.2941 200.971 11.0925 200.179 11.0567C199.754 11.0375 199.233 11.075 198.613 11.1209C198.364 11.1387 198.103 11.1579 197.83 11.176C197.846 11.1445 197.852 11.1156 197.854 11.0935C197.872 10.9378 197.053 10.7896 196.271 10.6485C195.953 10.5917 195.632 10.5353 195.381 10.4799C194.422 10.2729 192.622 10.1198 191.221 10.029C190.645 9.99148 190.087 9.90451 189.486 9.80707C189.152 9.7537 188.789 9.69605 188.369 9.63939C188.112 9.60407 187.833 9.5692 187.525 9.53616C187.074 9.48776 186.715 9.41903 186.438 9.36317C186.233 9.32249 186.058 9.28774 185.894 9.27106C185.752 9.25665 185.633 9.29408 185.5 9.33626C185.404 9.36662 185.299 9.39948 185.172 9.4172C184.865 9.45935 184.494 9.45453 184.225 9.41793C184.102 9.40107 184.006 9.37751 183.909 9.35407C183.797 9.32677 183.685 9.29936 183.529 9.28252C182.815 9.20536 182.134 9.21487 181.4 9.22366C180.62 9.23498 179.77 9.24488 178.869 9.14631C178.582 9.11508 178.275 9.06431 177.977 9.01508C177.664 8.96343 177.366 8.91401 177.11 8.89061C176.067 8.79544 175.078 8.85126 174.166 8.90309C173.553 8.9372 172.993 8.97049 172.463 8.9559C171.489 8.92902 170.971 9.03547 170.582 9.11367C170.381 9.15423 170.216 9.18762 170.046 9.19116C169.89 9.17896 169.732 9.16595 169.577 9.15273C169.437 9.13526 169.292 9.11722 169.155 9.11311C169.144 9.1128 169.134 9.11283 169.124 9.11253C168.265 9.03371 167.412 8.94209 166.576 8.85191C164.683 8.64873 162.823 8.45064 160.839 8.40934C160.413 8.40052 159.976 8.4344 159.53 8.4689C158.984 8.51112 158.429 8.55469 157.865 8.52216C156.519 8.44458 155.168 8.28841 153.835 8.13568C151.832 7.90599 149.87 7.68436 148.059 7.75009C147.459 7.77171 146.874 7.8262 146.288 7.88157C145.962 7.91244 145.631 7.94356 145.3 7.96904C145.373 7.89855 145.414 7.83117 145.451 7.76833C145.528 7.63882 145.595 7.52796 145.916 7.44522C146.674 7.24958 147.535 6.97313 147.452 6.74032C147.429 6.67713 147.453 6.60891 147.478 6.5403C147.543 6.36818 147.608 6.19227 146.916 6.08133C146.452 6.0066 145.249 5.82975 144.479 5.9311C144.312 5.95316 144.208 6.00659 144.093 6.06594C143.885 6.17259 143.635 6.29864 142.908 6.30027C142.786 6.30054 142.653 6.29987 142.516 6.29871C141.97 6.29412 141.353 6.2888 141.12 6.37212C140.852 6.46809 140.903 6.59255 140.963 6.73764C141.041 6.92662 141.134 7.151 140.555 7.3937C140.44 7.44167 140.225 7.45106 140.063 7.45826C139.949 7.46332 139.862 7.46757 139.852 7.48301C139.842 7.50077 139.877 7.53997 139.921 7.58958C140.076 7.76462 140.354 8.07041 139.161 8.03568C138.838 8.02632 138.471 7.99792 138.143 7.9725C137.662 7.93511 137.255 7.90412 137.199 7.95025C137.178 7.96776 137.163 7.98701 137.15 8.00709C136.763 7.98647 136.376 7.96604 135.991 7.94582C135.504 7.87001 134.795 7.84857 133.932 7.82379C133.723 7.81778 133.5 7.81122 133.267 7.80374C132.498 7.7644 131.75 7.7265 130.978 7.68813C130.37 7.64309 129.74 7.58237 129.054 7.49706C127.701 7.32683 126.522 7.08235 125.367 6.84506C124.942 6.75782 124.524 6.67154 124.105 6.59054C124.042 6.57864 123.979 6.56686 123.916 6.5552C123.982 6.55375 124.046 6.55206 124.106 6.54999C124.221 6.54588 124.325 6.54036 124.412 6.53253C125.315 6.45146 125.697 6.25348 126.037 6.0707C126.261 5.94913 126.474 5.83455 126.824 5.76717C127.468 5.64387 127.41 5.47508 127.366 5.35009C127.344 5.28528 127.327 5.23223 127.413 5.20372C127.483 5.18088 127.643 5.17409 127.809 5.16709C127.951 5.16095 128.097 5.15442 128.191 5.13726C129.337 4.92905 129 4.77637 128.508 4.55382C128.236 4.43113 127.924 4.28754 127.779 4.10148C127.655 3.90544 127.707 3.85068 128.302 3.79291C127.846 3.68354 127.37 3.57382 126.908 3.46484C126.724 3.46544 126.584 3.52056 126.387 3.61328C126.068 3.76866 125.024 3.80481 124.181 3.8308C124.123 3.83248 124.065 3.83411 124.009 3.83572C123.593 3.84757 123.235 3.85841 123.033 3.88008C121.966 3.99578 122.269 4.20383 122.537 4.38662C122.684 4.48727 122.82 4.58047 122.711 4.64653C122.664 4.67479 122.729 4.70573 122.794 4.73728C122.845 4.76167 122.897 4.78648 122.898 4.81065C122.907 4.98609 122.276 5.09953 121.679 5.20547C121.339 5.26617 121.019 5.3248 120.841 5.39047C120.787 5.41048 120.744 5.43119 120.704 5.45133C120.646 5.48075 120.587 5.50871 120.495 5.53172C120.287 5.58412 119.861 5.6129 119.402 5.64491C119.166 5.6613 118.923 5.67861 118.684 5.70012C118.378 5.72807 118.268 5.79515 118.151 5.86516C118.069 5.91464 117.982 5.96558 117.826 6.00588C117.545 6.07878 116.967 6.09599 116.435 6.11291C116.204 6.12026 115.982 6.12783 115.795 6.13937C115.72 6.14408 115.682 6.15537 115.673 6.17158C114.791 6.21185 113.967 6.25608 113.154 6.30098C109.091 6.5307 105.587 6.74897 100.358 6.66188C99.3653 6.64651 98.309 6.67567 97.2344 6.72996C93.8026 6.75058 90.3663 6.8211 86.9278 6.92827C86.2408 6.80613 85.4017 6.71865 84.4083 6.67105C83.2333 6.61469 82.0445 6.6236 80.7542 6.66246C80.0043 6.68484 79.2153 6.71776 78.3819 6.75368C76.7159 6.82553 74.861 6.90966 72.6944 6.95317C69.0557 7.02659 65.3212 7.15255 61.1152 7.41567C56.9272 7.67649 52.1387 8.04327 48.7547 8.34747C46.9101 8.51228 44.9607 8.56415 43.1446 8.62106C41.1941 8.68176 39.3938 8.749 38.0482 8.95709C37.6271 9.02191 37.2561 9.09927 36.9393 9.19339C36.4981 9.32233 36.0951 9.50442 35.6906 9.68351C35.4029 9.81104 35.1236 9.93572 34.8482 10.0371C34.0781 10.1107 33.3189 10.1855 32.554 10.2634C31.1809 10.2793 29.055 10.393 27.0579 10.8733C26.2787 10.9677 25.4836 11.0686 24.7304 11.1669C23.077 11.3851 21.4628 11.6158 19.8398 11.8727C19.3054 11.9573 18.7753 12.0437 18.237 12.1346C18.2319 12.1355 18.2268 12.1363 18.2217 12.1371C17.1452 12.3188 16.0567 12.5152 14.9952 12.7188C14.5361 12.807 14.0847 12.8958 13.627 12.9884C13.5492 13.0041 13.4716 13.0199 13.3942 13.0356C12.3111 13.2567 11.2321 13.4894 10.1674 13.7328C9.56431 13.8705 8.9566 14.0144 8.34963 14.1632C7.3636 14.4051 6.37407 14.662 5.39662 14.9352C4.27027 15.2513 3.15506 15.584 2.068 15.9702C1.62952 16.1281 1.18807 16.2946 0.796733 16.4886C0.575468 16.5966 0.377675 16.7103 0.312571 16.7443C0.253579 16.7426 0.201548 16.836 0.148498 16.8393C0.104491 16.8304 0.0204899 16.7423 0.0769829 16.5807C0.142173 16.4134 0.357866 16.239 0.5897 16.104C1.00132 15.8666 1.43898 15.6714 1.87599 15.4826C2.95999 15.0206 4.06466 14.6167 5.18263 14.2291C6.15113 13.8945 7.13139 13.5763 8.10953 13.2737C8.71184 13.0874 9.31443 12.9069 9.91334 12.7319C10.9676 12.424 12.0388 12.1266 13.1137 11.8416C13.1934 11.8204 13.2735 11.7992 13.3539 11.7781C13.8093 11.6581 14.2588 11.5419 14.7164 11.4263C15.7769 11.1578 16.866 10.8968 17.9441 10.6509C17.9506 10.6494 17.9572 10.648 17.9637 10.6465C18.4971 10.5249 19.0238 10.4076 19.5537 10.2926C21.1767 9.94056 22.7905 9.61581 24.4454 9.30467C25.298 9.14326 26.189 8.98181 27.0773 8.8257C27.5661 8.73962 28.0612 8.65408 28.545 8.5717C28.8149 8.52609 29.0745 8.4824 29.3465 8.43733C32.1815 7.96502 35.0061 7.53883 37.8405 7.14035C41.1941 6.66932 44.5569 6.23751 47.9374 5.82725C54.1461 5.07462 60.3738 4.39852 66.5892 3.77996C71.2238 3.31972 75.8597 2.89195 80.4952 2.50367C82.0932 2.36997 83.6919 2.24127 85.2926 2.11993C98.2253 1.08844 111.282 0.870137 124.259 1.01037C145.774 1.26332 167.271 1.97707 188.803 3.09216C194.158 3.38366 199.483 3.71043 204.861 4.16453C208.951 4.51453 213.202 4.94535 217.421 5.65229C219.082 5.92937 220.739 6.23019 222.455 6.62621C223.384 6.84413 224.326 7.08162 225.376 7.43922C225.624 7.52527 225.868 7.6094 226.234 7.76649C226.429 7.85502 226.618 7.92522 227.063 8.19609C227.303 8.38002 227.57 8.41681 228.342 9.36491C228.682 9.7999 229.434 11.0709 229.166 12.6985C228.868 14.2616 228.186 14.8116 227.987 15.0627C227.578 15.4855 227.258 15.6794 227.081 15.7911C226.871 15.9185 226.745 15.9792 226.628 16.035C226.393 16.1443 226.259 16.1917 226.144 16.2329C225.906 16.316 225.774 16.3512 225.642 16.387C225.391 16.4533 225.216 16.4899 225.048 16.5246C224.716 16.5917 224.445 16.6371 224.177 16.68C223.646 16.7641 223.153 16.8303 222.668 16.8921C221.697 17.015 220.758 17.1178 219.818 17.2154C216.993 17.4796 214.537 17.4287 212.126 17.4459C211.937 17.447 211.749 17.4476 211.561 17.448C211.133 17.4491 210.699 17.4478 210.295 17.448C210.094 17.4483 209.9 17.4492 209.759 17.453C209.622 17.4544 209.541 17.4715 209.723 17.4484C209.874 17.4308 210.151 17.3481 210.243 17.3058C210.345 17.2548 210.132 17.3827 209.558 17.6055C207.911 18.1245 207.637 17.933 207.212 17.9855C206.826 17.9917 206.505 17.9879 206.182 17.9831Z" fill="#E60000"/>
</svg>
